<svg viewBox="0 0 1216 896" xmlns="http://www.w3.org/2000/svg" xml:space="preserve" style="fill-rule:evenodd;clip-rule:evenodd;stroke-linejoin:round;stroke-miterlimit:2"><path style="fill:#dcffdd" d="M101.181 71.606h303.361v208.99H101.181z" transform="matrix(1.05485 0 0 1.14838 -106.73 -82.231)"/><path d="M404.542 71.606H101.181v208.991h303.361V71.606Zm-1.896 1.742v205.507H103.077V73.348h299.569Z" style="fill-opacity:.1" transform="matrix(1.05485 0 0 1.14838 -106.73 -82.231)"/><path style="fill:#ffffdc" d="M101.181 71.606h303.361v208.99H101.181z" transform="matrix(2.84809 0 0 1.14742 63.827 -81.963)"/><path d="M404.542 71.606H101.181v208.991h303.361V71.606Zm-.702 1.744v205.504H101.883V73.35H403.84Z" style="fill-opacity:.1" transform="matrix(2.84809 0 0 1.14742 63.827 -81.963)"/><path style="fill:#ffffdc" d="M101.181 71.606h303.361v208.99H101.181z" transform="matrix(4.00843 0 0 2.98578 -405.577 58.198)"/><path d="M404.542 71.606H101.181v208.991h303.361V71.606Zm-.499.67v207.651H101.68V72.276h302.363Z" style="fill-opacity:.1" transform="matrix(4.00843 0 0 2.98578 -405.577 58.198)"/><text x="286.346" y="334.462" style="font-family:'Helvetica';font-size:50px" transform="translate(-148.3 -173.001) scale(.7989)">Preserve</text><text x="242.645" y="384.462" style="font-family:'Helvetica';font-size:50px" transform="translate(-148.3 -173.001) scale(.7989)">an Element&apos;s</text><text x="328.021" y="434.462" style="font-family:'Helvetica';font-size:50px" transform="translate(-148.3 -173.001) scale(.7989)">Ratio</text><text x="184.893" y="334.462" style="font-family:'Helvetica';font-size:50px;fill-opacity:.49" transform="matrix(.2819 0 0 .2819 -42.314 -73.974)">&lt;PreserveRatio /&gt;</text><path style="fill:#dcffdd" d="M101.181 71.606h303.361v208.99H101.181z" transform="matrix(1.05485 0 0 1.14838 517.269 -82.231)"/><path d="M404.542 71.606H101.181v208.991h303.361V71.606Zm-1.896 1.742v205.507H103.077V73.348h299.569Z" style="fill-opacity:.1" transform="matrix(1.05485 0 0 1.14838 517.269 -82.231)"/><text x="184.893" y="334.462" style="font-family:'Helvetica';font-size:50px;fill-opacity:.49" transform="matrix(.2819 0 0 .2819 581.686 -73.974)">&lt;PreserveRatio /&gt;</text><text x="80.279" y="334.462" style="font-family:'Helvetica';font-size:50px;fill-opacity:.49" transform="matrix(.2819 0 0 .2819 339.177 -73.94)">&lt;div id=&quot;some-container&quot; /&gt;</text><text x="80.279" y="334.462" style="font-family:'Helvetica';font-size:50px;fill-opacity:.49" transform="matrix(.2819 0 0 .2819 -12.823 197.86)">&lt;div id=&quot;some-container&quot; /&gt;</text><text x="259.93" y="334.462" style="font-family:'Helvetica';font-size:50px" transform="translate(475.7 -173.001) scale(.7989)">Regardless</text><text x="250.188" y="384.462" style="font-family:'Helvetica';font-size:50px" transform="translate(475.7 -173.001) scale(.7989)">of Container</text><text x="337.75" y="434.462" style="font-family:'Helvetica';font-size:50px" transform="translate(475.7 -173.001) scale(.7989)">Size</text><path style="fill:#dcffdd" d="M101.181 71.606h303.361v208.99H101.181z" transform="matrix(2.74261 0 0 2.98578 -85.5 58.198)"/><path d="M404.542 71.606H101.181v208.991h303.361V71.606Zm-.729.67v207.651H101.91V72.276h301.903Z" style="fill-opacity:.1" transform="matrix(2.74261 0 0 2.98578 -85.5 58.198)"/><text x="184.893" y="334.462" style="font-family:'Helvetica';font-size:50px;fill-opacity:.49" transform="matrix(.2819 0 0 .2819 149.686 197.826)">&lt;PreserveRatio /&gt;</text><text x="272.417" y="334.462" style="font-family:'Helvetica';font-size:50px" transform="translate(-194.722 -177.385) scale(2.07714)">And Scale</text><text x="237.713" y="384.462" style="font-family:'Helvetica';font-size:50px" transform="translate(-194.722 -177.385) scale(2.07714)">Automatically</text><text x="330.816" y="434.462" style="font-family:'Helvetica';font-size:50px" transform="translate(-194.722 -177.385) scale(2.07714)">to Fit</text></svg>